<svg width="24" height="24" viewBox="0 0 24 24" fill="none" xmlns="http://www.w3.org/2000/svg">
<path d="M18.986 21.865V15.461H21.12V24H1.84399V15.461H3.97399V21.865H18.986ZM6.11099 19.731H16.85V17.594H6.11099V19.731ZM6.36999 14.879L16.85 17.068L17.301 14.998L6.82299 12.811L6.36999 14.879ZM7.72899 9.823L17.434 14.353L18.337 12.403L8.63099 7.873L7.72899 9.809V9.823ZM10.444 5.038L18.661 11.893L20.02 10.273L11.804 3.42L10.454 5.037L10.444 5.038ZM15.751 0L14.005 1.294L20.41 9.898L22.156 8.604L15.749 0H15.751Z" fill="white"/>
</svg>
